<?xml version="1.0" encoding="utf-8"?>
<!-- Generator: Adobe Illustrator 17.0.0, SVG Export Plug-In . SVG Version: 6.00 Build 0)  -->
<!DOCTYPE svg PUBLIC "-//W3C//DTD SVG 1.1 Tiny//EN" "http://www.w3.org/Graphics/SVG/1.1/DTD/svg11-tiny.dtd">
<svg version="1.1" baseProfile="tiny" id="Layer_1" xmlns="http://www.w3.org/2000/svg" xmlns:xlink="http://www.w3.org/1999/xlink"
	 x="0px" y="0px" width="50px" height="50px" viewBox="0 0 50 50" xml:space="preserve">
<path fill="#FC4141" d="M28.644,25.938c0,1.736-1.407,3.144-3.144,3.144l0,0c-1.736,0-3.144-1.407-3.144-3.144l0,0
	c0-1.736,1.407-3.144,3.144-3.144l0,0C27.236,22.795,28.644,24.202,28.644,25.938L28.644,25.938z"/>
<path fill="#FC4141" d="M35,9.484l1.351-2.34C33.156,5.294,29.457,4.219,25.5,4.219s-7.656,1.075-10.851,2.924L16,9.484
	c2.797-1.619,6.036-2.56,9.5-2.56C28.964,6.923,32.203,7.865,35,9.484z"/>
<path fill="#FC4141" d="M6.485,25.939l-2.687,0c-0.004,3.692,0.915,7.432,2.893,10.859c1.979,3.427,4.759,6.093,7.958,7.935
	L16,42.393C10.318,39.105,6.485,32.976,6.485,25.939z"/>
<path fill="#FC4141" d="M44.515,25.938L44.515,25.938c0,7.037-3.833,13.167-9.515,16.455l1.351,2.34
	c3.199-1.843,5.979-4.508,7.958-7.935c1.979-3.427,2.897-7.168,2.893-10.86L44.515,25.938z"/>
</svg>
